<svg version="1.1" id="Layer_1" xmlns="http://www.w3.org/2000/svg" xmlns:xlink="http://www.w3.org/1999/xlink" x="0px" y="0px"
	 width="100%" viewBox="0 0 500 500" enable-background="new 0 0 500 500" xml:space="preserve">
<path fill="#FCFCFC" opacity="1.000000" stroke="none" 
	d="
M222.468658,501.000000 
	C221.078598,500.335571 220.244827,499.306946 219.222748,499.061005 
	C202.319153,494.994385 185.390686,491.030975 168.473602,487.020020 
	C167.698013,486.836151 166.976852,486.422607 165.833740,485.953156 
	C168.294250,479.182526 170.696060,472.573395 173.199844,465.683685 
	C200.073593,475.265961 227.419128,479.768616 256.770264,479.090546 
	C256.770264,486.275635 256.770264,493.182495 256.885132,500.544678 
	C245.645767,501.000000 234.291550,501.000000 222.468658,501.000000 
z"/>
<path fill="#FBFBFB" opacity="1.000000" stroke="none" 
	d="
M279.531342,1.000000 
	C280.918335,1.664914 281.749756,2.700462 282.768036,2.939304 
	C298.744202,6.686610 314.745789,10.325546 330.735199,14.016802 
	C331.509430,14.195536 332.225372,14.626542 333.427582,15.133785 
	C331.125366,21.792233 328.875793,28.298401 326.417450,35.408443 
	C301.234619,26.956932 275.548065,22.400755 248.085083,22.886137 
	C248.085083,15.741694 248.085083,8.837750 248.042542,1.466903 
	C258.354218,1.000000 268.708466,1.000000 279.531342,1.000000 
z"/>
<path fill="#FCFCFC" opacity="1.000000" stroke="none" 
	d="
M1.000001,222.468658 
	C1.666105,221.087357 2.704145,220.262314 2.942753,219.249008 
	C6.775923,202.970352 10.499311,186.665878 14.281988,170.375244 
	C14.501609,169.429398 15.014306,168.551636 15.567545,167.214584 
	C22.264977,169.582214 28.901087,171.928162 35.857353,174.387283 
	C27.145794,199.589462 22.568275,225.243927 22.854923,252.422287 
	C15.591608,252.422287 8.674572,252.422287 1.378768,252.711151 
	C1.000000,242.979111 1.000000,232.958206 1.000001,222.468658 
z"/>
<path fill="#FCFCFC" opacity="1.000000" stroke="none" 
	d="
M501.000000,279.531372 
	C500.336426,280.912720 499.280365,281.742676 499.067902,282.750488 
	C495.621155,299.102264 492.281372,315.476624 488.769287,332.566772 
	C480.717621,329.835663 474.058167,327.576782 466.972229,325.173279 
	C475.469055,299.914276 479.670258,274.177032 479.108643,246.837006 
	C486.252625,246.837006 493.163818,246.837006 500.537537,246.918503 
	C501.000000,257.687561 501.000000,268.375122 501.000000,279.531372 
z"/>
<path fill="#FBFBFB" opacity="1.000000" stroke="none" 
	d="
M155.022400,20.071167 
	C171.572281,14.674918 187.757584,9.393024 204.603119,3.895671 
	C206.209976,12.333933 207.531296,19.272734 208.920807,26.569660 
	C182.719345,31.606554 158.311005,40.714474 135.022476,54.364037 
	C131.363922,48.196316 127.762306,42.124603 123.676422,35.236485 
	C134.199203,30.124451 144.428528,25.154987 155.022400,20.071167 
z"/>
<path fill="#FBFBFB" opacity="1.000000" stroke="none" 
	d="
M450.716858,140.384201 
	C449.410858,138.088242 448.290009,136.108826 447.024170,133.873337 
	C453.265259,130.122055 459.221039,126.542290 465.584076,122.717728 
	C480.643860,147.839813 490.888763,174.554169 496.439301,203.527481 
	C489.189117,204.915207 482.393982,206.215851 475.197357,207.593338 
	C470.444519,183.877380 462.452332,161.629974 450.716858,140.384201 
z"/>
<path fill="#FBFBFB" opacity="1.000000" stroke="none" 
	d="
M22.380856,292.537018 
	C24.876102,291.862793 26.453524,291.548126 27.026018,294.638184 
	C31.666761,319.686615 40.639500,343.154175 53.689899,365.851746 
	C47.576176,369.443451 41.523090,372.999512 35.018543,376.820831 
	C20.104731,351.472992 10.320286,324.605408 4.998221,295.656067 
	C10.883894,294.615540 16.427500,293.635468 22.380856,292.537018 
z"/>
<path fill="#FBFBFB" opacity="1.000000" stroke="none" 
	d="
M355.747192,453.826233 
	C360.294525,451.363892 364.502747,449.057281 369.283112,446.437073 
	C372.978943,452.497986 376.630554,458.486359 380.494293,464.822632 
	C355.470428,480.064453 328.909607,490.328918 299.924652,496.205780 
	C298.498352,489.123535 297.111755,482.238373 295.646515,474.962616 
	C316.767914,470.544342 336.633179,463.780884 355.747192,453.826233 
z"/>
<path fill="#FBFBFB" opacity="1.000000" stroke="none" 
	d="
M398.149628,48.865112 
	C413.668365,60.257210 427.524872,72.922890 440.134583,87.572159 
	C434.670197,92.278015 429.305359,96.898155 423.702423,101.723351 
	C406.044006,81.528313 385.845886,64.913513 362.494751,51.785641 
	C366.094757,45.363224 369.483856,39.317089 373.314331,32.483532 
	C381.640808,37.976215 389.745178,43.322392 398.149628,48.865112 
z"/>
<path fill="#FBFBFB" opacity="1.000000" stroke="none" 
	d="
M416.812561,407.807404 
	C430.193878,393.769318 441.265808,378.459442 450.847076,361.391876 
	C457.197144,364.895111 463.353699,368.291595 469.831482,371.865265 
	C455.577179,397.662811 437.585022,419.809814 415.557068,439.225494 
	C410.762329,433.747955 406.109589,428.432617 401.967712,423.700928 
	C407.068207,418.243805 411.822388,413.157196 416.812561,407.807404 
z"/>
<path fill="#FCFCFC" opacity="1.000000" stroke="none" 
	d="
M102.134659,77.757721 
	C82.227051,95.318161 65.655838,115.154900 52.439125,138.359177 
	C46.121223,134.775177 39.976582,131.289490 33.549587,127.643616 
	C48.082893,102.079987 66.314476,80.048210 88.725883,60.855892 
	C93.307648,66.438698 97.823799,71.941559 102.134659,77.757721 
z"/>
<path fill="#FCFCFC" opacity="1.000000" stroke="none" 
	d="
M122.589294,465.553040 
	C98.757118,451.191650 74.514969,430.501953 60.132629,412.204102 
	C65.439598,407.709351 70.757248,403.205536 75.947418,398.809692 
	C85.632416,408.039886 94.776962,417.671204 104.895134,426.139160 
	C114.918297,434.527618 125.923210,441.743011 136.802444,449.695862 
	C133.591782,455.271729 130.138733,461.268524 126.543526,467.512238 
	C125.208679,466.876068 124.051376,466.324524 122.589294,465.553040 
z"/>
</svg>