<svg version="1.1" id="Layer_1" xmlns="http://www.w3.org/2000/svg" xmlns:xlink="http://www.w3.org/1999/xlink" x="0px" y="0px"
	 width="100%" viewBox="0 0 186 214" enable-background="new 0 0 186 214" xml:space="preserve">
<path fill="#EFD255" opacity="1.000000" stroke="none" 
	d="
M160.000000,1.000000 
	C160.444336,1.000000 160.888672,1.000000 161.849030,1.303113 
	C170.420715,3.932329 175.401993,9.223874 177.597641,17.271782 
	C179.980698,26.006699 177.498672,33.165161 170.527618,38.479744 
	C166.429642,41.603966 162.433670,44.915535 158.746735,48.507175 
	C156.155624,51.031288 153.826797,53.970589 151.985016,57.082115 
	C149.510864,61.261990 150.744492,65.357872 153.325668,69.244347 
	C155.972748,73.230049 159.102539,70.918633 162.181259,70.243019 
	C164.450928,69.744949 166.761627,69.437172 169.043625,68.991302 
	C173.400864,68.139992 176.286453,70.397278 177.735184,73.992393 
	C179.009491,77.154633 179.588837,80.694641 179.902054,84.120216 
	C180.246811,87.890564 178.606308,90.546021 174.794983,92.268875 
	C170.598129,94.166008 166.414001,96.508522 162.946381,99.495293 
	C158.685104,103.165657 159.307205,107.198349 164.130081,110.070572 
	C167.254303,111.931175 170.693985,113.295303 174.070282,114.693672 
	C188.689850,120.748718 189.738480,126.027573 178.867493,137.169800 
	C176.284897,139.816833 174.046036,140.173386 170.985748,138.687119 
	C167.541931,137.014603 164.145996,135.114700 160.519485,133.989914 
	C157.862366,133.165771 154.298233,132.417511 152.226013,133.577850 
	C150.889526,134.326218 151.183395,138.609451 151.356735,141.268738 
	C151.560776,144.399429 152.664703,147.465088 152.952255,150.598053 
	C153.558517,157.203842 148.917969,160.604050 142.510056,158.433868 
	C140.517548,157.759064 138.543198,157.030609 136.490128,156.301712 
	C135.174774,162.985474 135.997131,168.531219 140.408981,173.429840 
	C143.857544,177.258865 146.768051,181.566513 150.074646,185.530502 
	C157.716797,194.692032 154.609985,207.206772 143.552490,211.437912 
	C142.466873,211.853348 141.356094,212.267731 140.219147,212.474243 
	C129.435837,214.432831 123.690399,213.366211 120.736198,200.927032 
	C119.508507,195.757614 120.146599,190.021683 120.611717,184.601318 
	C121.394073,175.483826 117.493317,168.773102 110.598595,163.546951 
	C107.076492,160.877213 103.723969,161.366592 100.471214,164.840240 
	C96.500290,169.080841 97.685692,173.784653 99.289612,177.947998 
	C101.721138,184.259598 102.232597,190.440887 101.264542,197.005707 
	C100.669098,201.043610 92.899040,211.405914 88.951714,211.834961 
	C81.947876,212.596237 74.382683,213.160843 69.696823,206.595459 
	C65.201195,200.296616 64.156418,193.159775 68.631157,185.998169 
	C71.453041,181.481857 74.074295,176.838806 76.732643,172.222137 
	C78.676331,168.846573 77.418907,166.603012 74.624664,164.092972 
	C71.572609,161.351334 69.459259,162.933243 67.238472,164.603989 
	C65.393578,165.991943 63.821243,167.760651 62.214703,169.443314 
	C58.153419,173.697037 51.081577,172.311768 49.724430,166.555176 
	C48.364693,160.787567 45.248096,157.778641 39.584419,156.338303 
	C33.347527,154.752182 30.692135,150.346222 32.565292,144.208572 
	C33.888222,139.873810 36.578999,135.941803 38.775467,131.893112 
	C40.444687,128.816284 42.297009,125.838814 44.067860,122.817131 
	C43.681690,122.519249 43.295525,122.221367 42.909355,121.923485 
	C41.037926,123.178040 39.263180,125.291824 37.275745,125.515472 
	C32.554825,126.046707 26.971199,127.218979 23.133389,125.315369 
	C17.577223,122.559441 16.376135,115.078194 19.022640,109.028595 
	C21.326815,103.761551 25.577972,101.401405 31.489330,101.985802 
	C33.269932,102.161827 35.140461,101.428207 37.099552,101.088806 
	C34.568455,94.455391 31.441170,92.382561 25.547134,91.806725 
	C18.120243,91.081146 10.065562,93.065292 4.538442,84.887550 
	C1.428430,80.286087 1.338820,76.228477 3.127455,71.899277 
	C5.205029,66.870728 8.767441,62.523781 14.620622,62.159012 
	C20.722662,61.778728 26.449331,63.653801 31.268108,67.770416 
	C33.156727,69.383850 35.124866,70.991081 37.289074,72.177391 
	C42.164154,74.849678 43.228775,74.556564 44.806511,69.408127 
	C46.822399,62.829937 49.973278,57.821724 58.194424,57.843605 
	C58.194424,54.073704 58.206436,50.763206 58.191460,47.452831 
	C58.171658,43.075569 60.040638,40.001553 64.481956,39.177353 
	C68.491928,38.433201 72.457069,38.143158 74.669762,42.914089 
	C75.491013,44.684868 76.830452,46.342865 78.290497,47.655216 
	C79.859917,49.065880 83.004730,51.324863 83.453682,50.930019 
	C85.378677,49.237019 87.476112,46.834465 87.820724,44.446636 
	C88.455231,40.050213 87.586273,35.456745 87.947464,30.994246 
	C88.207870,27.776951 88.863190,24.322458 90.375626,21.534246 
	C93.135910,16.445602 100.819794,13.876521 104.414215,16.811211 
	C108.535477,20.176044 113.392937,23.482483 112.069023,30.240446 
	C111.694221,32.153648 112.193352,34.225006 112.166611,36.222153 
	C112.110123,40.441021 113.777306,43.292248 118.225838,43.802177 
	C122.403534,44.281059 126.158302,43.925354 128.084717,39.176357 
	C129.646057,35.327316 131.711472,31.685396 133.481186,27.917738 
	C139.161469,15.824691 145.591629,4.487338 160.000000,1.000000 
z"/>
</svg>